<svg width="20" height="20" viewBox="0 0 20 20" fill="none" xmlns="http://www.w3.org/2000/svg">
<path d="M9.70708 10.586C9.23556 10.586 8.81165 10.3046 8.62712 9.86914L7.5481 10.3263C7.91657 11.196 8.764 11.7579 9.70708 11.7579C10.6502 11.7579 11.4976 11.196 11.8661 10.3263L10.787 9.86918C10.6026 10.3046 10.1786 10.586 9.70708 10.586Z" fill="#43A6E7"/>
<path d="M10.8789 7.07031H12.0508V8.24219H10.8789V7.07031Z" fill="#43A6E7"/>
<path d="M16.7383 10V2.92969C16.7383 1.31426 15.424 0 13.8086 0C12.7498 0 11.7984 0.561836 11.2811 1.44637C10.7889 1.26887 10.259 1.17188 9.70703 1.17188C7.12234 1.17188 5.01953 3.29219 5.01953 5.89844V9.18199C5.01953 10.9968 5.98324 12.598 7.36328 13.4431V14.1016H6.77734C3.86957 14.1016 1.50391 16.4847 1.50391 19.4141V20H17.9102V19.4141C17.9102 16.4847 15.5445 14.1016 12.6367 14.1016H12.0508V13.4762C12.7548 13.0677 13.3683 12.463 13.7876 11.7267C14.3211 12.4553 15.1822 12.9297 16.1523 12.9297H18.4961V11.7578C17.5268 11.7578 16.7383 10.9693 16.7383 10ZM14.3945 15.6736C15.612 16.259 16.5007 17.4325 16.6973 18.8281H14.3945C14.3945 17.863 14.3945 16.7189 14.3945 15.6736ZM5.01953 18.8281H2.71672C2.9134 17.4325 3.80207 16.259 5.01953 15.6736V18.8281ZM13.2227 18.8281H6.19141V17.6172H13.2227V18.8281ZM12.6367 15.2734C12.8356 15.2734 13.0312 15.288 13.2227 15.3157V16.4453H6.19141V15.3157C6.38281 15.288 6.57844 15.2734 6.77734 15.2734H8.53516V13.9485C8.92887 14.0545 9.31555 14.1016 9.71043 14.1016C10.1099 14.1016 10.5016 14.0518 10.8789 13.9552V15.2734H12.6367ZM13.2227 9.41406C13.2227 11.3595 11.6513 12.9249 9.71656 12.9297C7.73754 12.9346 6.19141 11.1769 6.19141 9.18195V7.07031H7.36328V8.24219H8.53516V7.07031H7.94922C8.90652 7.07031 9.75801 6.60883 10.293 5.8966C10.8279 6.60879 11.6794 7.07031 12.6367 7.07031H13.2227V9.41406ZM12.6367 5.89844C11.6675 5.89844 10.8789 5.10988 10.8789 4.14062H9.70703C9.70703 5.10988 8.91848 5.89844 7.94922 5.89844H6.19141C6.19141 3.93836 7.76852 2.34375 9.70703 2.34375C11.6455 2.34375 13.2227 3.93836 13.2227 5.89844H12.6367ZM16.1523 11.7578C15.1831 11.7578 14.3945 10.9693 14.3945 10C14.3945 9.15484 14.3945 6.78574 14.3945 5.89844C14.3945 4.2702 13.5738 2.83164 12.3275 1.98125C12.6447 1.48438 13.1968 1.17188 13.8086 1.17188C14.7779 1.17188 15.5664 1.96043 15.5664 2.92969V10C15.5664 10.6589 15.7852 11.2679 16.1538 11.7578H16.1523Z" fill="#43A6E7"/>
</svg>
