<svg width="20" height="20" viewBox="0 0 20 20" fill="none" xmlns="http://www.w3.org/2000/svg">
<path d="M12.9167 5.83325H5.41668C5.18668 5.83325 5 6.01993 5 6.24993C5 6.47993 5.18668 6.66661 5.41668 6.66661H12.9167C13.1467 6.66661 13.3334 6.47993 13.3334 6.24993C13.3334 6.01993 13.1467 5.83325 12.9167 5.83325Z" fill="black"/>
<path d="M2.91675 15C2.22757 15 1.66675 15.5608 1.66675 16.25C1.66675 16.9392 2.22757 17.5 2.91675 17.5C3.60593 17.5 4.16675 16.9392 4.16675 16.25C4.16675 15.5608 3.60589 15 2.91675 15ZM2.91675 16.6667C2.68675 16.6667 2.50007 16.48 2.50007 16.25C2.50007 16.02 2.68675 15.8333 2.91675 15.8333C3.14675 15.8333 3.33339 16.02 3.33339 16.25C3.33339 16.48 3.14675 16.6667 2.91675 16.6667Z" fill="black"/>
<path d="M2.91675 11.6666C2.22757 11.6666 1.66675 12.2274 1.66675 12.9166C1.66675 13.6058 2.22757 14.1666 2.91675 14.1666C3.60593 14.1666 4.16675 13.6058 4.16675 12.9166C4.16675 12.2274 3.60589 11.6666 2.91675 11.6666ZM2.91675 13.3333C2.68675 13.3333 2.50007 13.1466 2.50007 12.9166C2.50007 12.6866 2.68675 12.4999 2.91675 12.4999C3.14675 12.4999 3.33343 12.6866 3.33343 12.9166C3.33343 13.1466 3.14675 13.3333 2.91675 13.3333Z" fill="black"/>
<path d="M2.91675 8.33325C2.22757 8.33325 1.66675 8.89408 1.66675 9.58326C1.66675 10.2724 2.22757 10.8333 2.91675 10.8333C3.60593 10.8333 4.16675 10.2724 4.16675 9.58326C4.16675 8.89411 3.60589 8.33325 2.91675 8.33325ZM2.91675 9.99994C2.68675 9.99994 2.50007 9.81326 2.50007 9.58326C2.50007 9.35326 2.68675 9.16658 2.91675 9.16658C3.14675 9.16658 3.33343 9.35326 3.33343 9.58326C3.33343 9.81326 3.14675 9.99994 2.91675 9.99994Z" fill="black"/>
<path d="M2.91675 5C2.22757 5 1.66675 5.56082 1.66675 6.25C1.66675 6.93918 2.22757 7.5 2.91675 7.5C3.60593 7.5 4.16675 6.93918 4.16675 6.25C4.16675 5.56082 3.60589 5 2.91675 5ZM2.91675 6.66668C2.68675 6.66668 2.50007 6.48 2.50007 6.25C2.50007 6.02 2.68675 5.83332 2.91675 5.83332C3.14675 5.83332 3.33339 6.02 3.33339 6.25C3.33339 6.48 3.14675 6.66668 2.91675 6.66668Z" fill="black"/>
<path d="M17.815 4.16668C17.2317 4.16668 16.6833 4.39418 16.2708 4.80668L15.1216 5.95586L15 6.0775V2.91668C15 2.2275 14.4392 1.66668 13.75 1.66668H11.59C11.4175 1.1825 10.9592 0.833359 10.4167 0.833359H8.93836C8.64418 0.325 8.09832 0 7.5 0C6.90168 0 6.35582 0.325 6.06168 0.83332H4.58336C4.04086 0.83332 3.58254 1.1825 3.41004 1.66664H1.25C0.56082 1.66664 0 2.22746 0 2.91664V18.75C0 19.4392 0.56082 20 1.25 20H13.75C14.4392 20 15 19.4392 15 18.75V12.255L18.2083 9.04668C18.2091 9.04586 18.21 9.04586 18.2108 9.045C18.2116 9.04418 18.2116 9.04332 18.2125 9.0425L19.36 7.895C19.7733 7.4825 20 6.93418 20 6.35C20 5.14582 19.02 4.16668 17.815 4.16668ZM4.16668 2.08332C4.16668 1.85332 4.35336 1.66664 4.58336 1.66664H6.32668C6.5025 1.66664 6.66 1.55496 6.71918 1.38914C6.8375 1.05664 7.15168 0.83332 7.5 0.83332C7.84832 0.83332 8.1625 1.05664 8.28082 1.38914C8.34 1.55582 8.4975 1.66664 8.67332 1.66664H10.4166C10.6466 1.66664 10.8333 1.85332 10.8333 2.08332V2.5H4.16668V2.08332ZM14.1667 18.75C14.1667 18.98 13.98 19.1667 13.75 19.1667H1.25C1.02 19.1667 0.83332 18.98 0.83332 18.75V2.91668C0.83332 2.68668 1.02 2.5 1.25 2.5H3.33332V2.91668C3.33332 3.14668 3.52 3.33336 3.75 3.33336H11.25C11.48 3.33336 11.6667 3.14668 11.6667 2.91668V2.5H13.75C13.98 2.5 14.1667 2.68668 14.1667 2.91668V6.91086L11.8584 9.21918C11.8 9.18836 11.7367 9.16668 11.6667 9.16668H5.41668C5.18668 9.16668 5 9.35336 5 9.58336C5 9.81336 5.18668 10 5.41668 10H11.0775L8.5775 12.5H5.41668C5.18668 12.5 5 12.6867 5 12.9167C5 13.1467 5.18668 13.3334 5.41668 13.3334H8.21668L7.59168 15.8334H5.41668C5.18668 15.8334 5 16.02 5 16.25C5 16.48 5.18668 16.6667 5.41668 16.6667H7.91668C7.95086 16.6667 7.98418 16.6625 8.0175 16.6534L11.3508 15.8201C11.3608 15.8176 11.3675 15.8084 11.3775 15.8051C11.43 15.7876 11.4775 15.7609 11.5183 15.7259C11.5258 15.7192 11.5375 15.7184 11.545 15.7109L14.1667 13.0884V18.75ZM9.06 13.3975C9.32918 13.4758 9.7275 13.6492 10.1217 14.0442C10.5167 14.4392 10.6909 14.8384 10.7692 15.1067L8.48918 15.6775L9.06 13.3975ZM11.4708 14.6058C11.335 14.2625 11.1091 13.8533 10.71 13.455C10.3125 13.0575 9.90418 12.8308 9.56082 12.6958L15.4166 6.84L17.3267 8.75L11.4708 14.6058ZM18.7708 7.30582L17.9158 8.16082L16.0058 6.25082L16.8608 5.395C17.1158 5.13918 17.455 4.99918 17.8166 4.99918C18.5608 4.99918 19.1666 5.605 19.1666 6.35086C19.1667 6.71168 19.0258 7.05082 18.7708 7.30582Z" fill="black"/>
</svg>
