<svg width="20" height="20" viewBox="0 0 20 20" fill="none" xmlns="http://www.w3.org/2000/svg">
<g clip-path="url(#clip0)">
<path d="M20 5.50973C20 4.41773 19.1116 3.52933 18.0196 3.52933H14.1176V2.90188C14.1176 1.95043 13.3436 1.17639 12.3922 1.17639H7.60784C6.65639 1.17639 5.88235 1.95043 5.88235 2.90188V3.52933H1.98039C0.888392 3.52933 0 4.41773 0 5.50973V9.99992H1.17647V16.8431C1.17647 17.9351 2.06486 18.8235 3.15686 18.8235H16.8431C17.9351 18.8235 18.8235 17.9351 18.8235 16.8431V9.99992H20V5.50973ZM7.05882 2.90188C7.05882 2.59914 7.3051 2.35286 7.60784 2.35286H12.3922C12.6949 2.35286 12.9412 2.59914 12.9412 2.90188V3.52933H7.05882V2.90188ZM5.29412 17.647V14.7058H11.7647V16.4705H12.9412V14.7058H14.7059V17.647H5.29412ZM17.6471 16.8431C17.6471 17.2864 17.2864 17.647 16.8431 17.647H15.8824V13.5293H4.11765V17.647H3.15686C2.71357 17.647 2.35294 17.2864 2.35294 16.8431V9.99992H4.11765V10.5882C4.11765 11.5612 4.90929 12.3529 5.88235 12.3529C6.85541 12.3529 7.64706 11.5612 7.64706 10.5882V9.99992H12.3529V10.5882C12.3529 11.5612 13.1445 12.3529 14.1176 12.3529C15.0907 12.3529 15.8824 11.5612 15.8824 10.5882V9.99992H17.6471V16.8431ZM5.29412 10.5882V8.82345H6.47059V10.5882C6.47059 10.9125 6.20671 11.1764 5.88235 11.1764C5.558 11.1764 5.29412 10.9125 5.29412 10.5882ZM13.5294 10.5882V8.82345H14.7059V10.5882C14.7059 10.9125 14.442 11.1764 14.1176 11.1764C13.7933 11.1764 13.5294 10.9125 13.5294 10.5882ZM18.8235 8.82345H15.8824V7.64698H12.3529V8.82345H7.64706V7.64698H4.11765V8.82345H1.17647V5.50973C1.17647 5.06643 1.5371 4.7058 1.98039 4.7058H18.0196C18.4629 4.7058 18.8235 5.06643 18.8235 5.50973V8.82345Z" fill="black"/>
</g>
<defs>
<clipPath id="clip0">
<rect width="20" height="20" fill="white"/>
</clipPath>
</defs>
</svg>
